<svg width="21" height="22" viewBox="0 0 21 22" fill="none" xmlns="http://www.w3.org/2000/svg">
<path d="M13.0909 7.66667V3.5C13.0909 2.83696 12.8179 2.20107 12.332 1.73223C11.8462 1.26339 11.1872 1 10.5 1H3.59091C2.90376 1 2.24475 1.26339 1.75886 1.73223C1.27297 2.20107 1 2.83696 1 3.5V18.5C1 19.163 1.27297 19.7989 1.75886 20.2678C2.24475 20.7366 2.90376 21 3.59091 21H10.5C11.1872 21 11.8462 20.7366 12.332 20.2678C12.8179 19.7989 13.0909 19.163 13.0909 18.5V14.3333M8.77273 7.66667L5.31818 11M5.31818 11L8.77273 14.3333M5.31818 11H20" stroke="#BDBDBD" stroke-width="1.5" stroke-linecap="round" stroke-linejoin="round"/>
</svg>
