<svg width="1100" height="1131" viewBox="0 0 1100 1131" fill="none" xmlns="http://www.w3.org/2000/svg">
<path opacity="0.5" d="M318.343 56.6942C198.405 157.217 179.819 347.298 98.5892 487.527C70.3124 536.322 33.7749 579.992 14.7119 634.123C-29.0536 758.026 31.1802 898.572 111.801 996.981C150.245 1043.93 195.149 1086.94 249.478 1106.72C291.258 1121.94 336.056 1122.57 380.033 1122.97L1150.5 1130.9C1236.52 1131.77 1332.1 1128.62 1393.95 1062.21C1436.57 1016.48 1453.89 949.692 1468.58 885.944C1486.64 807.613 1503 722.546 1474.91 647.94C1442.82 562.582 1361.67 514.21 1311.26 440.555C1229.45 321.223 1231.33 140.731 1127.14 45.4664C1078.51 1.00407 1014.33 -16.4321 951.792 -25.1502C833.892 -41.6089 722.215 -10.5408 606.433 -14.8734C507.464 -18.572 400.447 -12.1259 318.343 56.6942Z" fill="#CCE1FA"/>
</svg>
