<svg width="537" height="537" viewBox="0 0 537 537" fill="none" xmlns="http://www.w3.org/2000/svg">
<path d="M465.869 121.394C464.215 118.645 462.507 115.949 460.714 113.318C436.839 78.2408 397.101 54.2262 358.48 43.3465C341.564 38.578 324.187 36.0756 306.842 35.4419C193.094 31.307 151.305 125.099 114.66 149.275C78.0154 173.462 21.77 214.757 28.8262 301.525C34.1854 367.491 71.711 430.577 140.254 459.285C147.804 462.454 155.741 465.214 164.043 467.491C179.487 471.744 196.241 474.407 214.274 475.213C266.094 477.522 308.174 465.031 349.329 433.574C358.899 426.26 368.414 418.011 380.83 417.109C389.851 416.454 398.411 419.698 388.981 428.419C377.898 438.664 390.689 458.834 418.828 444.819C465.837 421.427 485.169 370.949 494.276 319.622C505.457 256.621 500.033 178.273 465.869 121.383V121.394Z" fill="#415A77"/>
<path opacity="0.7" d="M465.869 121.394C464.215 118.645 462.507 115.949 460.714 113.318C436.839 78.2408 397.101 54.2262 358.48 43.3465C341.564 38.578 324.187 36.0756 306.842 35.4419C193.094 31.307 151.305 125.099 114.66 149.275C78.0154 173.462 21.77 214.757 28.8262 301.525C34.1854 367.491 71.711 430.577 140.254 459.285C147.804 462.454 155.741 465.214 164.043 467.491C179.487 471.744 196.241 474.407 214.274 475.213C266.094 477.522 308.174 465.031 349.329 433.574C358.899 426.26 368.414 418.011 380.83 417.109C389.851 416.454 398.411 419.698 388.981 428.419C377.898 438.664 390.689 458.834 418.828 444.819C465.837 421.427 485.169 370.949 494.276 319.622C505.457 256.621 500.033 178.273 465.869 121.383V121.394Z" fill="white"/>
<g opacity="0.3">
<path d="M192.783 33.6162H35.5709V496.639H192.783V33.6162Z" stroke="black" stroke-linecap="round" stroke-linejoin="round"/>
<path d="M172.839 237.311H117.796V290.184H172.839V237.311Z" stroke="black" stroke-linecap="round" stroke-linejoin="round"/>
<path d="M172.839 117.958H117.796V170.831H172.839V117.958Z" stroke="black" stroke-linecap="round" stroke-linejoin="round"/>
<path d="M172.839 296.982H117.796V349.855H172.839V296.982Z" stroke="black" stroke-linecap="round" stroke-linejoin="round"/>
<path d="M172.839 57.7275H117.796V111.17H172.839V57.7275Z" stroke="black" stroke-linecap="round" stroke-linejoin="round"/>
<path d="M110.568 57.7275H55.5258V111.17H110.568V57.7275Z" stroke="black" stroke-linecap="round" stroke-linejoin="round"/>
<path d="M172.839 177.629H117.796V230.502H172.839V177.629Z" stroke="black" stroke-linecap="round" stroke-linejoin="round"/>
<path d="M110.568 177.629H55.5258V230.502H110.568V177.629Z" stroke="black" stroke-linecap="round" stroke-linejoin="round"/>
<path d="M172.839 356.654H117.796V401.655H172.839V356.654Z" stroke="black" stroke-linecap="round" stroke-linejoin="round"/>
<path d="M110.568 296.982H55.5258V349.855H110.568V296.982Z" stroke="black" stroke-linecap="round" stroke-linejoin="round"/>
<path d="M110.568 356.654H55.5258V401.655H110.568V356.654Z" stroke="black" stroke-linecap="round" stroke-linejoin="round"/>
<path d="M110.568 237.311H55.5258V290.184H110.568V237.311Z" stroke="black" stroke-linecap="round" stroke-linejoin="round"/>
<path d="M110.568 117.958H55.5258V170.831H110.568V117.958Z" stroke="black" stroke-linecap="round" stroke-linejoin="round"/>
<path d="M43.9158 34.4216V496.285" stroke="black" stroke-linecap="round" stroke-linejoin="round"/>
<path d="M350.006 33.6162H192.794V496.639H350.006V33.6162Z" stroke="black" stroke-linecap="round" stroke-linejoin="round"/>
<path d="M267.78 237.311H212.738V290.184H267.78V237.311Z" stroke="black" stroke-linecap="round" stroke-linejoin="round"/>
<path d="M267.78 117.958H212.738V170.831H267.78V117.958Z" stroke="black" stroke-linecap="round" stroke-linejoin="round"/>
<path d="M267.78 296.982H212.738V349.855H267.78V296.982Z" stroke="black" stroke-linecap="round" stroke-linejoin="round"/>
<path d="M267.78 57.7275H212.738V111.17H267.78V57.7275Z" stroke="black" stroke-linecap="round" stroke-linejoin="round"/>
<path d="M330.062 57.7275H275.019V111.17H330.062V57.7275Z" stroke="black" stroke-linecap="round" stroke-linejoin="round"/>
<path d="M267.78 177.629H212.738V230.502H267.78V177.629Z" stroke="black" stroke-linecap="round" stroke-linejoin="round"/>
<path d="M330.062 177.629H275.019V230.502H330.062V177.629Z" stroke="black" stroke-linecap="round" stroke-linejoin="round"/>
<path d="M267.78 356.654H212.738V401.655H267.78V356.654Z" stroke="black" stroke-linecap="round" stroke-linejoin="round"/>
<path d="M330.062 296.982H275.019V349.855H330.062V296.982Z" stroke="black" stroke-linecap="round" stroke-linejoin="round"/>
<path d="M330.062 356.654H275.019V401.655H330.062V356.654Z" stroke="black" stroke-linecap="round" stroke-linejoin="round"/>
<path d="M330.062 237.311H275.019V290.184H330.062V237.311Z" stroke="black" stroke-linecap="round" stroke-linejoin="round"/>
<path d="M330.062 117.958H275.019V170.831H330.062V117.958Z" stroke="black" stroke-linecap="round" stroke-linejoin="round"/>
<path d="M341.661 34.4216V496.285" stroke="black" stroke-linecap="round" stroke-linejoin="round"/>
</g>
<path d="M463.173 451.026H421.029L425.25 496.048H458.952L463.173 451.026Z" fill="#263238" stroke="#263238" stroke-miterlimit="10"/>
<path d="M442.875 458.673C442.875 458.673 460.81 390.786 482.43 341.962" stroke="#263238" stroke-linecap="round" stroke-linejoin="round"/>
<path d="M477.404 353.099C477.404 353.099 475.019 334.648 480.722 326.528C486.425 318.409 493.03 315.391 493.03 315.391C493.03 315.391 494.437 336.194 492.053 342.939C489.669 349.684 477.404 353.088 477.404 353.088V353.099Z" fill="#415A77"/>
<path d="M477.049 354.302C477.049 354.302 472.367 352.326 470.809 341.843C469.252 331.35 472.968 315.069 472.968 315.069C472.968 315.069 477.79 327.624 479.208 335.829C480.626 344.034 477.049 354.302 477.049 354.302Z" fill="#415A77"/>
<path d="M477.049 354.302C477.049 354.302 483.934 342.67 492.558 340.082C501.193 337.494 515.047 336.559 515.047 336.559C515.047 336.559 510.311 346.333 498.647 350.264C486.984 354.205 477.049 354.302 477.049 354.302Z" fill="#415A77"/>
<path d="M466.889 380.475C466.889 380.475 469.037 378.617 464.462 369.757C459.887 360.907 454.238 357.277 454.238 357.277C454.238 357.277 451.445 370.637 455.548 376.663C459.651 382.688 463.034 386.468 463.034 386.468C463.034 386.468 450.522 382.161 448.513 381.721C446.494 381.281 437.891 380.153 437.891 380.153C437.891 380.153 437.011 383.934 445.259 388.24C453.507 392.547 462.593 392.504 462.593 392.504C462.593 392.504 464.086 393.546 467.373 395.898C470.659 398.25 480.014 402.202 480.014 402.202C480.014 402.202 480.841 397.563 477.576 395.501C474.311 393.428 471.669 392.182 471.669 392.182C471.669 392.182 479.906 392.193 481.549 391.226C483.193 390.259 491.323 384.556 491.323 384.556C491.323 384.556 483.107 384.825 481.12 384.965C479.144 385.093 472.453 386.984 472.453 386.984C472.453 386.984 483.311 383.676 485.749 377.78C488.187 371.883 488.326 365.579 488.326 365.579C488.326 365.579 474.44 370.24 466.889 380.486V380.475Z" fill="#415A77"/>
<path d="M457.921 407.422C457.921 407.422 469.95 404.608 475.213 406.821C480.475 409.033 487.166 419.752 487.166 419.752C487.166 419.752 477.747 423.253 470.143 420.042C462.54 416.83 457.921 407.411 457.921 407.411V407.422Z" fill="#415A77"/>
<path d="M457.921 407.422C457.921 407.422 452.648 400.903 445.506 400.248C438.364 399.582 433.08 401.375 433.08 401.375C433.08 401.375 432.876 406.831 442.166 409.634C451.445 412.437 457.921 407.422 457.921 407.422Z" fill="#415A77"/>
<path d="M454.27 420.546C454.27 420.546 460.263 420.997 463.603 424.208C466.943 427.42 472.302 443.659 472.302 443.659C472.302 443.659 461.552 440.093 454.946 434.809C448.341 429.525 454.259 420.535 454.259 420.535L454.27 420.546Z" fill="#415A77"/>
<path d="M454.27 420.546C454.27 420.546 446.795 415.037 441.521 416.83C436.248 418.624 433.799 424.509 433.832 429.095C433.853 433.671 433.81 437.118 433.81 437.118C433.81 437.118 442.703 434.229 445.13 432.339C447.557 430.459 454.27 420.557 454.27 420.557V420.546Z" fill="#415A77"/>
<path d="M436.731 465.074C436.731 465.074 427.645 384.932 411.116 347.75" stroke="#263238" stroke-miterlimit="10"/>
<path d="M409.688 344.206C409.688 344.206 406.573 340.458 410.311 331.103C414.059 321.749 417.797 316.443 417.797 316.443C417.797 316.443 423.102 326.743 423.414 332.972C423.725 339.212 416.862 346.698 416.862 346.698C416.862 346.698 419.354 344.206 424.037 343.261C428.719 342.327 435.271 342.95 435.271 342.95C435.271 342.95 432.468 347.944 429.342 349.501C426.228 351.058 417.485 352.938 416.239 352.616C414.994 352.304 415.617 353.239 409.688 358.856C403.76 364.473 400.022 367.276 400.022 367.276C400.022 367.276 397.842 357.288 399.711 352.304C401.579 347.31 409.699 344.196 409.699 344.196L409.688 344.206Z" fill="#415A77"/>
<path d="M413.114 344.518C413.114 344.518 410.311 340.458 407.809 338.278C405.317 336.097 400.634 335.475 398.765 335.163C396.897 334.852 396.585 341.403 400.011 345.774C403.437 350.145 416.229 352.637 416.229 352.637L413.114 344.528V344.518Z" fill="#415A77"/>
<path d="M417.485 365.106C417.485 365.106 414.994 362.303 421.856 357.621C428.719 352.938 434.959 352.626 434.959 352.626C434.959 352.626 433.09 364.483 429.965 367.909C426.84 371.336 421.545 370.713 421.545 370.713C421.545 370.713 429.031 371.024 432.156 372.581C435.271 374.139 442.456 384.127 442.456 384.127C442.456 384.127 442.456 384.438 435.593 384.438C428.73 384.438 423.113 378.821 423.113 378.821C423.113 378.821 424.359 382.57 424.67 385.373C424.982 388.176 419.053 395.039 418.43 395.984C417.807 396.918 412.502 389.121 411.879 385.684C411.256 382.247 411.879 379.756 411.879 379.756C411.879 379.756 409.699 380.69 406.885 384.127C404.082 387.564 402.202 392.859 402.202 392.859C402.202 392.859 395.962 382.87 397.52 376.641C399.077 370.401 412.803 370.713 412.803 370.713C412.803 370.713 406.251 369.778 403.137 368.532C400.022 367.287 397.208 364.473 397.208 362.915C397.208 361.358 398.765 360.735 405.317 361.358C411.868 361.981 417.485 365.106 417.485 365.106Z" fill="#415A77"/>
<path d="M426.528 399.732C426.528 399.732 417.485 394.115 412.803 394.738C408.12 395.361 404.071 396.918 402.503 396.918C400.935 396.918 405.618 406.584 411.235 406.906C416.852 407.218 426.829 404.726 426.829 404.726C426.829 404.726 421.212 408.163 419.032 411.9C416.852 415.649 415.917 422.823 415.917 422.823C415.917 422.823 424.026 423.134 427.463 420.02C430.9 416.905 429.643 405.36 429.643 405.36C429.643 405.36 431.512 403.802 434.326 403.491C437.129 403.18 442.37 406.026 442.37 406.026C442.37 406.026 448.986 396.94 438.074 391.945C427.151 386.951 426.528 399.743 426.528 399.743V399.732Z" fill="#415A77"/>
<path d="M431.522 430.309C431.522 430.309 425.282 426.872 421.534 429.997C417.786 433.112 412.803 443.723 412.803 443.723C412.803 443.723 420.288 444.969 425.283 442.166C430.277 439.363 431.522 430.309 431.522 430.309Z" fill="#415A77"/>
<path d="M431.522 430.309C431.522 430.309 432.768 425.003 439.008 423.446C445.248 421.889 454.291 427.506 454.291 427.506C454.291 427.506 451.488 430.309 444.303 432.5C437.129 434.68 431.512 430.32 431.512 430.32L431.522 430.309Z" fill="#415A77"/>
<path d="M412.18 449.63H405.564V495.307H412.18V449.63Z" fill="white" stroke="#263238" stroke-linecap="round" stroke-linejoin="round"/>
<path d="M475.814 449.63H469.198V495.307H475.814V449.63Z" fill="white" stroke="#263238" stroke-linecap="round" stroke-linejoin="round"/>
<path d="M478.671 448.578H403.835V457.997H478.671V448.578Z" fill="white" stroke="#263238" stroke-linecap="round" stroke-linejoin="round"/>
<path d="M478.671 461.455H403.835V470.874H478.671V461.455Z" fill="white" stroke="#263238" stroke-linecap="round" stroke-linejoin="round"/>
<path d="M478.671 474.343H403.835V483.762H478.671V474.343Z" fill="white" stroke="#263238" stroke-linecap="round" stroke-linejoin="round"/>
<path d="M478.671 487.231H403.835V496.65H478.671V487.231Z" fill="white" stroke="#263238" stroke-linecap="round" stroke-linejoin="round"/>
<g opacity="0.3">
<path d="M508.947 33.4766H380.712V204.189H508.947V33.4766Z" stroke="black" stroke-linecap="round" stroke-linejoin="round"/>
<path d="M504.759 39.0398H384.889V198.615H504.759V39.0398Z" stroke="black" stroke-linecap="round" stroke-linejoin="round"/>
<path d="M384.889 156.235C398.325 149.275 427.377 130.727 435.314 97.2936C441.586 70.8839 450.672 51.5949 464.548 39.0505" stroke="black" stroke-linecap="round" stroke-linejoin="round"/>
<path d="M443.208 198.626C434.927 171.754 424.531 119.622 453.55 85.0071C471.862 63.162 490.184 50.5747 504.769 43.3359" stroke="black" stroke-linecap="round" stroke-linejoin="round"/>
<path d="M392.858 39.0505C398.433 45.9993 404.468 58.0281 402.557 76.4472C400.516 96.1766 391.57 107.325 384.889 113.049" stroke="black" stroke-linecap="round" stroke-linejoin="round"/>
<path d="M490.27 198.626C480.894 184.352 466.191 186.5 456.16 173.225C443.508 156.482 455.784 131.544 484.814 119.987C493.89 116.379 500.28 111.17 504.769 105.714" stroke="black" stroke-linecap="round" stroke-linejoin="round"/>
<path d="M384.889 188.412C393.685 174.987 404.715 162.314 411.482 169.885C417.12 176.19 418.473 187.757 418.237 198.636" stroke="black" stroke-linecap="round" stroke-linejoin="round"/>
<path d="M415.251 39.0505C415.552 54.5913 417.432 83.4282 427.119 71.2383C433.875 62.7537 439.223 49.6831 442.81 39.0505" stroke="black" stroke-linecap="round" stroke-linejoin="round"/>
<path d="M504.769 61.6367C489.014 75.2228 461.627 100.483 479.981 96.9176C489.755 95.0166 498.164 89.0022 504.769 82.3757" stroke="black" stroke-linecap="round" stroke-linejoin="round"/>
</g>
<path d="M255.408 103.705C255.408 103.705 253.099 94.3079 238.213 93.7816C223.328 93.2446 223.156 99.0764 219.225 100.934C217.217 101.88 213.006 107.432 213.447 110.418L222.082 106.369C222.082 106.369 202.395 118.29 201.858 137.966C201.321 157.642 209.312 173.913 225.272 173.913C241.231 173.913 248.32 169.123 248.137 157.609C247.965 146.085 245.656 126.238 249.2 114.886C252.744 103.544 255.408 103.716 255.408 103.716V103.705Z" fill="#263238" stroke="#263238" stroke-miterlimit="10"/>
<path d="M302.632 235.109L308.464 246.558C308.464 246.558 317.217 254.409 319.461 259.801C321.706 265.181 330.395 279.852 333.595 280.894C334.658 281.238 339.201 282.011 340.78 282.462C342.348 282.913 343.927 284.481 345.044 284.707C346.161 284.932 348.191 285.383 349.533 284.707C350.876 284.03 352.229 285.158 351.778 286.5C351.327 287.843 346.612 288.745 346.612 288.745L339.878 287.402C339.878 287.402 345.484 291.215 344.593 293.234C343.691 295.253 330.899 297.272 329.782 297.272C328.666 297.272 327.151 295.704 323.564 293.019C319.977 290.324 319.053 284.674 319.053 284.674C319.053 284.674 298.819 266.535 295.447 262.045C292.085 257.556 288.036 247.235 288.036 246.558C288.036 245.882 286.242 240.952 286.242 240.952L302.621 235.12L302.632 235.109Z" fill="white" stroke="#263238" stroke-miterlimit="10"/>
<path d="M339.61 290.496C339.61 290.496 340.297 294.287 341.156 294.974C342.015 295.662 344.432 294.416 344.604 293.234C344.775 292.053 342.885 289.465 341.672 288.777C340.469 288.09 339.083 288.605 339.61 290.496Z" stroke="#263238" stroke-miterlimit="10"/>
<path d="M339.61 290.496C339.61 290.496 337.612 289.969 336.828 290.85C336.044 291.731 337.612 296.639 338.203 297.036C338.793 297.434 341.145 296.843 341.339 296.349C341.532 295.855 341.21 292.891 339.61 290.496Z" fill="white" stroke="#263238" stroke-miterlimit="10"/>
<path d="M336.141 292.815C336.141 292.815 334.272 290.163 333.584 292.128C332.897 294.093 333.294 297.326 333.681 297.917C334.078 298.508 335.937 298.701 336.237 297.627C336.527 296.542 336.237 294.19 336.141 292.815Z" fill="white" stroke="#263238" stroke-miterlimit="10"/>
<path d="M332.994 293.707C332.994 293.707 331.619 291.355 330.545 293.019C329.46 294.684 329.761 297.638 330.255 298.325C330.749 299.012 332.124 298.819 332.51 297.831C332.908 296.854 333.004 293.707 333.004 293.707H332.994Z" fill="white" stroke="#263238" stroke-miterlimit="10"/>
<path d="M188.165 230.91L186.876 244.7C186.876 244.7 184.288 250.306 183.214 256.546C182.14 262.786 182.14 294.899 182.14 301.364C182.14 307.83 181.71 317.098 182.354 320.761C182.999 324.423 185.372 328.73 186.017 329.815C186.661 330.889 190.324 331.759 191.623 331.533C192.923 331.307 196.145 328.515 196.145 328.515C196.145 328.515 195.93 327.011 194.426 327.011C192.923 327.011 191.838 326.367 191.408 325.723C190.979 325.078 192.482 319.472 192.482 319.472C192.482 319.472 193.556 324.423 194.426 323.779C195.285 323.134 196.37 323.993 196.37 321.405C196.37 318.817 195.941 316.014 195.941 316.014C195.941 316.014 196.585 313.211 195.941 309.333C195.296 305.456 192.278 302.224 192.278 299.85C192.278 297.476 200.677 273.558 203.265 264.086C205.854 254.602 206.283 246.204 206.283 246.204L208.002 235.217L188.176 230.91H188.165Z" fill="white" stroke="#263238" stroke-miterlimit="10"/>
<path d="M242.144 140.748C242.144 140.748 244.442 152.25 241.629 158.393C238.815 164.526 225.519 171.561 222.962 173.225C220.406 174.89 203.781 178.338 197.133 189.206C190.485 200.075 186.586 231.329 186.586 233.133L211.148 239.137C211.148 239.137 210.751 251.778 210.751 256.117C210.751 260.456 203.641 274.675 200.484 300.355C197.326 326.023 210.751 387.241 210.751 387.241C210.751 387.241 209.57 405.016 208.775 416.465C207.98 427.914 210.751 474.525 210.751 474.525C210.751 474.525 208.775 482.419 206.401 484.395C204.028 486.372 196.134 491.108 195.737 493.084C195.339 495.06 196.918 495.458 198.894 496.242C200.87 497.036 228.515 496.242 228.515 496.242C228.515 496.242 231.673 494.265 231.275 487.156C230.878 480.046 230.878 476.491 230.878 476.491C230.878 476.491 232.457 470.176 233.251 467.007C234.046 463.85 233.649 458.319 234.046 453.582C234.444 448.846 239.577 386.049 239.577 380.518C239.577 374.987 247.084 311.406 247.084 311.406L251.821 379.337C251.821 379.337 254.581 469.531 255.773 472.302C256.955 475.062 258.533 477.038 258.533 477.038L257.739 480.991L258.533 487.703C258.533 487.703 256.557 496.392 258.533 496.392H282.623C282.623 496.392 286.575 492.837 284.997 489.282C283.418 485.727 281.442 482.172 281.442 482.172L278.682 474.278C278.682 474.278 281.055 469.542 281.055 467.168V455.72C281.055 450.189 285.791 371.045 285.791 371.045C285.791 371.045 290.141 335.109 291.323 309.43C292.504 283.751 286.189 265.987 283.815 260.456C281.442 254.925 280.658 249.393 280.658 249.393L281.452 237.15L285.007 243.078L311.471 234.39L296.854 193.707C296.854 193.707 288.562 181.86 284.213 178.305C279.863 174.75 268.844 172.227 265.257 169.767C262.475 167.866 260.724 154.86 260.724 154.86L242.133 140.737L242.144 140.748Z" fill="#415A77" stroke="#263238" stroke-miterlimit="10"/>
<path d="M285.018 243.078L311.482 234.39L296.864 193.707C296.864 193.707 288.573 181.86 284.223 178.305C279.874 174.75 268.854 172.227 265.267 169.767C262.486 167.866 260.735 154.86 260.735 154.86L242.144 140.737C242.144 140.737 244.442 152.239 241.629 158.383C238.815 164.515 225.519 171.55 222.962 173.215C220.406 174.879 203.781 178.327 197.133 189.196C190.485 200.065 186.586 231.318 186.586 233.122L211.148 239.126C211.148 239.126 210.751 251.767 210.751 256.106C210.751 259.639 206.058 269.692 202.599 287.134C212.845 290.356 230.427 294.727 248.706 294.072C267.179 293.417 282.365 291.043 290.764 289.454C289.218 274.6 285.512 264.397 283.815 260.445C281.442 254.914 280.658 249.383 280.658 249.383L281.452 237.139L285.007 243.068L285.018 243.078Z" fill="#415A77" stroke="#263238" stroke-miterlimit="10"/>
<path d="M268.253 241.252L249.759 253.206" stroke="#263238" stroke-miterlimit="10"/>
<path d="M275.266 236.731L271.464 239.18" stroke="#263238" stroke-miterlimit="10"/>
<path d="M269.424 245.763L259.317 251.606" stroke="#263238" stroke-miterlimit="10"/>
<path d="M252.948 183.031C252.948 183.031 256.138 193.664 256.138 205.359" stroke="#263238" stroke-miterlimit="10"/>
<path d="M257.287 184.126C257.287 184.728 256.804 185.211 256.203 185.211C255.601 185.211 255.118 184.728 255.118 184.126C255.118 183.525 255.601 183.042 256.203 183.042C256.804 183.042 257.287 183.525 257.287 184.126Z" stroke="#263238" stroke-miterlimit="10"/>
<path d="M259.135 192.418C259.135 193.019 258.651 193.502 258.05 193.502C257.449 193.502 256.965 193.019 256.965 192.418C256.965 191.816 257.449 191.333 258.05 191.333C258.651 191.333 259.135 191.816 259.135 192.418Z" stroke="#263238" stroke-miterlimit="10"/>
<path d="M259.887 201.804C260.486 201.804 260.971 201.319 260.971 200.72C260.971 200.121 260.486 199.635 259.887 199.635C259.287 199.635 258.802 200.121 258.802 200.72C258.802 201.319 259.287 201.804 259.887 201.804Z" stroke="#263238" stroke-miterlimit="10"/>
<path d="M244.603 178.456C253.7 183.342 263.463 178.971 269.413 171.743C267.694 171.067 266.223 170.411 265.278 169.767C262.496 167.866 260.746 154.86 260.746 154.86L242.155 140.737C242.155 140.737 244.453 152.239 241.639 158.383C240.372 161.143 236.978 164.086 233.402 166.642C234.809 170.036 237.902 174.858 244.603 178.456Z" fill="white" stroke="#263238" stroke-miterlimit="10"/>
<path d="M251.95 160.176C251.95 160.176 256.557 165.364 258.48 167.662C260.402 169.971 263.474 171.507 263.474 171.507L264.247 164.215L251.96 160.187L251.95 160.176Z" fill="#263238" stroke="#263238" stroke-miterlimit="10"/>
<path d="M284.47 200.978C284.975 199.044 285.458 197.326 285.458 197.326" stroke="#263238" stroke-miterlimit="10"/>
<path d="M281.463 237.161C281.463 237.161 285.458 228.848 285.652 223.564C285.845 218.28 283.386 207.336 283.386 206.015C283.386 205.671 283.525 204.94 283.729 204.038" stroke="#263238" stroke-miterlimit="10"/>
<path d="M217.904 204.876L211.675 235.442L213.748 211.481" stroke="#263238" stroke-miterlimit="10"/>
<path d="M281.463 482.183L278.703 474.289C278.703 474.289 270.508 468.876 266.427 470.627C262.346 472.377 261.476 475.878 261.476 475.878L258.565 477.06L257.771 481.012L258.565 487.725C258.565 487.725 256.589 496.413 258.565 496.413H282.655C282.655 496.413 286.608 492.858 285.029 489.303C283.45 485.749 281.474 482.194 281.474 482.194L281.463 482.183Z" fill="white" stroke="#263238" stroke-miterlimit="10"/>
<path d="M231.307 487.156C231.007 481.796 230.931 478.456 230.921 477.135L225.615 477.511C225.615 477.511 223.285 471.679 218.613 470.519C213.952 469.349 210.773 474.515 210.773 474.515C210.773 474.515 208.796 482.409 206.423 484.385C204.049 486.361 196.155 491.097 195.758 493.073C195.361 495.049 196.939 495.447 198.916 496.231C200.892 497.026 228.536 496.231 228.536 496.231C228.536 496.231 231.694 494.255 231.297 487.145L231.307 487.156Z" fill="white" stroke="#263238" stroke-miterlimit="10"/>
<path d="M238.084 129.739C238.084 129.739 236.806 117.045 241.929 108.71C247.052 100.376 259.876 98.3247 268.468 101.02C277.06 103.716 284.105 111.535 285.265 117.302C286.414 123.07 284.75 131.662 283.987 133.971C283.214 136.28 281.549 137.3 281.549 139.48C281.549 141.661 281.936 148.459 279.369 152.433C276.802 156.407 272.195 163.968 270.014 165.385C267.834 166.803 264.376 166.406 262.84 165.901C261.304 165.385 260.402 164.881 260.402 164.881C260.402 164.881 251.681 160.52 248.867 157.448C246.043 154.377 244.507 150.521 243.1 147.063C241.693 143.605 240.533 139.502 240.533 139.502L238.095 129.761L238.084 129.739Z" fill="white" stroke="#263238" stroke-miterlimit="10"/>
<path d="M285.254 117.302C284.105 111.535 277.049 103.716 268.457 101.02C259.865 98.3247 247.052 100.376 241.919 108.71C236.796 117.045 238.074 129.739 238.074 129.739L239.824 136.731L244.228 134.218C244.228 134.218 248.33 132.424 248.588 129.986C248.846 127.548 250.253 127.162 252.304 125.239C254.355 123.317 254.613 112.416 265.761 110.88C274.686 109.645 280.98 112.534 285.437 118.462C285.383 118.065 285.319 117.667 285.244 117.292L285.254 117.302Z" fill="#263238" stroke="#263238" stroke-miterlimit="10"/>
<path d="M245.645 144.099C245.645 144.099 243.594 146.15 241.414 145.001C239.234 143.852 236.291 140.769 235.646 134.744C235.002 128.719 238.213 126.281 241.672 128.332C245.13 130.384 245.774 136.28 245.774 136.28" fill="white"/>
<path d="M245.645 144.099C245.645 144.099 243.594 146.15 241.414 145.001C239.234 143.852 236.291 140.769 235.646 134.744C235.002 128.719 238.213 126.281 241.672 128.332C245.13 130.384 245.774 136.28 245.774 136.28" stroke="#263238" stroke-miterlimit="10"/>
<path d="M278.596 132.746L275.395 133.896C275.395 133.896 273.73 140.307 273.73 141.714C273.73 143.121 276.168 146.59 275.782 147.868C275.395 149.146 271.421 150.306 270.53 149.791" stroke="#263238" stroke-miterlimit="10"/>
<path d="M261.798 151.724C261.798 151.724 263.721 155.569 270.39 155.311" stroke="#263238" stroke-miterlimit="10"/>
<path d="M259.231 137.88C259.231 137.88 263.592 139.931 267.952 139.029" stroke="#263238" stroke-miterlimit="10"/>
<path d="M269.617 130.309C269.617 130.309 263.978 128.257 259.489 130.437" stroke="#263238" stroke-miterlimit="10"/>
<path d="M265.257 139.545L264.612 140.447C264.612 140.447 263.968 140.834 261.788 139.932" stroke="#263238" stroke-miterlimit="10"/>
<path d="M274.761 139.577C274.761 139.577 277.79 141.199 280.711 140.286" stroke="#263238" stroke-miterlimit="10"/>
<path d="M278.907 140.812L278.51 141.607C278.51 141.607 278.091 141.961 276.576 141.263" stroke="#263238" stroke-miterlimit="10"/>
<path d="M279.616 133.133C279.616 133.133 281.925 132.746 282.441 134.411" stroke="#263238" stroke-miterlimit="10"/>
<path d="M180.926 419.343C180.926 419.343 170.046 414.553 158.823 415.982C145.677 417.657 137.279 425.218 132.521 436.689C127.763 448.159 127.946 468.608 140.071 481.453C145.624 487.328 152.121 491.71 158.039 493.879C162.958 495.683 168.167 496.553 173.397 496.553H252.723C258.512 496.553 263.882 493.503 266.825 488.52C271.174 481.152 276.19 469.478 274.353 456.826C271.271 435.561 257.008 429.686 255.612 429.128C254.216 428.569 180.915 419.333 180.915 419.333L180.926 419.343Z" fill="#9E9E9E" stroke="#263238" stroke-miterlimit="10"/>
<path d="M229.943 212.716C229.943 212.716 234.497 217.947 235.861 222.952C237.225 227.957 238.589 230.008 239.502 231.372C240.415 232.736 245.645 235.926 245.645 238.879C245.645 241.833 242.004 243.433 242.004 243.433C242.004 243.433 242.455 253.217 242.692 256.181C242.917 259.135 243.379 260.509 241.779 262.099C240.179 263.688 236.774 265.514 236.774 265.514C236.774 265.514 225.851 277.124 224.487 278.488C223.123 279.852 192.171 267.791 192.171 267.791C192.171 267.791 193.084 264.838 193.76 263.237L194.448 261.648C194.448 261.648 184.438 242.993 182.161 233.434C179.884 223.875 195.135 209.763 200.14 206.584C205.145 203.394 221.308 204.307 225.626 204.758C229.943 205.209 231.995 205.897 231.995 208.399V210.901L234.723 209.989C234.723 209.989 233.584 213.629 229.943 212.716Z" fill="white" stroke="#263238" stroke-linecap="round" stroke-linejoin="round"/>
<path d="M222.887 212.716C226.528 212.942 229.943 212.716 229.943 212.716C233.584 213.629 234.723 209.989 234.723 209.989L231.995 210.901V208.399C231.995 205.897 229.943 205.209 225.626 204.758C221.298 204.307 205.145 203.394 200.14 206.584C195.135 209.774 179.884 223.875 182.161 233.434C184.438 242.993 194.448 261.648 194.448 261.648C194.448 261.648 196.037 261.648 201.042 260.058C206.047 258.469 207.873 251.864 207.873 251.864C207.873 251.864 202.18 249.812 200.816 247.536C199.453 245.259 201.042 237.751 203.77 236.839C206.498 235.926 210.601 239.115 211.739 239.341C212.878 239.566 213.329 238.654 214.242 237.29C215.154 235.926 213.79 233.874 213.79 232.736C213.79 231.597 219.257 225.454 220.385 222.952C221.523 220.449 212.652 215.67 213.103 213.393C213.554 211.116 219.246 212.48 222.887 212.706V212.716Z" fill="#263238" stroke="#263238" stroke-linecap="round" stroke-linejoin="round"/>
<path d="M229.707 265.514C229.707 265.514 223.564 265.965 218.333 262.786C213.103 259.597 212.416 256.643 212.416 256.643" stroke="#263238" stroke-linecap="round" stroke-linejoin="round"/>
<path d="M230.169 247.536C230.169 247.536 232.22 250.264 237.225 250.038" stroke="#263238" stroke-linecap="round" stroke-linejoin="round"/>
<path d="M235.571 230.889C236.011 232.199 235.904 233.412 235.313 233.616C234.723 233.821 233.885 232.918 233.445 231.619C233.004 230.319 233.112 229.095 233.702 228.891C234.293 228.687 235.131 229.589 235.571 230.889Z" fill="#263238"/>
<path d="M229.986 227.462C229.986 227.462 231.597 224.24 234.819 225.368" stroke="#263238" stroke-linecap="round" stroke-linejoin="round"/>
<path d="M322.49 473.57C322.49 473.57 324.896 481.292 331.286 485.845C337.687 490.399 346.805 491.634 348.427 493.03C350.049 494.416 347.267 496.038 347.267 496.038H309.978L309.742 474.268L322.479 473.57H322.49Z" fill="#263238" stroke="#263238" stroke-miterlimit="10"/>
<path d="M311.6 384.159C311.6 384.159 323.639 381.152 325.497 383.461C327.355 385.781 331.522 447.622 333.144 458.501C334.766 469.392 334.304 472.635 334.304 472.635L311.374 479.122C311.374 479.122 306.047 451.789 300.258 441.135C294.469 430.481 283.117 403.845 290.764 394.115C298.411 384.385 311.61 384.159 311.61 384.159H311.6Z" fill="#263238" stroke="#263238" stroke-miterlimit="10"/>
<path d="M236.817 286.006C236.817 286.006 255.268 287.94 259.554 287.51C263.839 287.08 270.712 283.858 282.075 283.644C293.449 283.429 339.567 282.355 344.281 282.355C348.996 282.355 373.784 281.377 373.784 281.377C373.784 281.377 386.436 280.518 385.587 282.237C384.728 283.955 382.151 285.029 379.154 285.673C376.147 286.318 372.721 287.821 372.721 287.821L367.147 289.325C367.147 289.325 371.432 290.399 372.721 290.399C374.01 290.399 379.154 291.258 378.08 292.332C377.006 293.406 376.577 293.836 373.795 293.836C371.013 293.836 367.147 292.977 365.643 292.977C364.14 292.977 362.206 293.836 358.351 294.265C354.484 294.695 345.581 294.384 345.581 294.384L329.922 296.532C329.922 296.532 300.537 304.683 287.66 308.335C274.794 311.986 268.994 312.201 268.994 312.201C268.994 312.201 264.064 312.846 251.402 314.994C238.75 317.142 221.373 316.068 221.373 316.068L236.817 286.039V286.006Z" fill="#263238" stroke="#263238" stroke-linecap="round" stroke-linejoin="round"/>
<path d="M190.377 264.655C190.377 264.655 231.565 278.381 237.569 282.677C243.572 286.962 250.22 310.139 251.08 319.365C251.939 328.59 259.231 359.049 259.876 374.063C260.52 389.078 258.587 386.93 258.587 386.93C258.587 386.93 213.533 395.511 204.533 398.518C195.522 401.526 180.722 416.97 180.292 416.325C179.863 415.681 179.863 403.244 181.581 396.156C183.3 389.067 184.803 370.627 184.803 370.627C184.803 370.627 175.792 334.798 175.363 323.22C174.933 311.632 180.078 286.318 182.44 278.81C184.803 271.303 188.874 264.011 190.377 264.655Z" fill="white" stroke="#263238" stroke-linecap="round" stroke-linejoin="round"/>
<path d="M229.965 311.911L254.549 347.643C254.549 347.643 248.717 321.04 248.717 320.02C248.717 318.999 248.459 309.119 248.459 309.119L229.965 311.911Z" fill="#263238" stroke="#263238" stroke-linecap="round" stroke-linejoin="round"/>
<path d="M237.58 282.677C237.58 282.677 256.031 284.61 260.316 284.18C264.601 283.751 271.475 280.529 282.838 280.314C294.212 280.099 340.329 279.025 345.044 279.025C349.759 279.025 373.795 281.388 373.795 281.388C373.795 281.388 386.447 280.529 385.598 282.247C384.739 283.966 382.161 285.04 379.165 285.684C376.158 286.328 372.732 287.832 372.732 287.832L367.158 289.336C367.158 289.336 371.443 290.41 372.732 290.41C374.02 290.41 379.165 291.269 378.091 292.343C377.017 293.417 376.587 293.846 373.806 293.846C371.024 293.846 367.158 292.987 365.654 292.987C364.15 292.987 362.217 293.846 358.362 294.276C354.495 294.706 346.343 291.054 346.343 291.054L330.685 293.202C330.685 293.202 301.3 301.354 288.423 305.005C275.556 308.657 269.757 308.872 269.757 308.872C269.757 308.872 264.827 309.516 252.164 311.664C239.513 313.812 222.135 312.738 222.135 312.738L237.58 282.709V282.677Z" fill="white" stroke="#263238" stroke-linecap="round" stroke-linejoin="round"/>
<path d="M380.228 284.18C380.228 284.18 374.869 284.825 373.58 285.254C372.291 285.684 368.221 286.973 365.428 287.402C362.636 287.832 359.425 288.262 359.425 288.262C359.425 288.262 355.558 290.624 351.488 289.98C347.417 289.336 346.343 288.047 346.343 288.047" stroke="#263238" stroke-miterlimit="10"/>
<path d="M194.888 282.247C194.888 282.247 209.913 279.154 217.195 278.81C224.477 278.478 241.006 283.955 241.006 283.955L218.699 319.139C218.699 319.139 200.892 318.28 200.032 318.28" fill="white"/>
<path d="M194.888 282.247C194.888 282.247 209.913 279.154 217.195 278.81C224.477 278.478 241.006 283.955 241.006 283.955L218.699 319.139C218.699 319.139 200.892 318.28 200.032 318.28" stroke="#263238" stroke-linecap="round" stroke-linejoin="round"/>
<path d="M216.765 321.287C216.765 321.287 211.621 345.098 197.455 358.405" stroke="#263238" stroke-miterlimit="10"/>
<path d="M222.565 317.002C222.565 317.002 220.847 331.802 213.984 347.89" stroke="#263238" stroke-miterlimit="10"/>
<path d="M193.513 396.682C193.513 396.682 210.579 390.807 223.725 389.69" stroke="#263238" stroke-miterlimit="10"/>
<path d="M221.212 386.898C221.212 386.898 231.844 386.06 239.115 387.736" stroke="#263238" stroke-miterlimit="10"/>
<path d="M213.125 350.038C213.125 350.038 211.836 353.475 210.762 355.827" stroke="#263238" stroke-miterlimit="10"/>
<path d="M230.287 317.861C230.287 317.861 232.435 330.094 232.865 337.816" stroke="#263238" stroke-miterlimit="10"/>
<path d="M300.881 476.974C300.881 476.974 300.881 495.221 301.815 496.005C302.75 496.789 306.81 496.628 307.271 496.628H342.359C342.359 496.628 345.162 496.156 345.323 494.287C345.484 492.418 338.31 490.388 337.676 490.388C337.043 490.388 317.249 479.627 316.626 478.693C316.003 477.758 314.446 473.548 314.446 473.548L300.881 476.974Z" fill="white" stroke="#263238" stroke-miterlimit="10"/>
<path d="M256.74 438.654C256.74 438.654 279.412 433.735 289.368 426.088L284.739 416.819L256.74 438.654Z" fill="#263238" stroke="#263238" stroke-linecap="round" stroke-linejoin="round"/>
<path d="M180.303 416.325C180.303 416.325 180.647 425.777 186.522 430.814C192.396 435.851 210.579 438.922 218.419 438.643C226.249 438.364 256.75 438.643 256.75 438.643C256.75 438.643 264.021 436.13 268.779 433.606C273.537 431.093 283.89 423.811 283.89 423.811C283.89 423.811 286.124 437.236 287.252 441.994C288.369 446.752 295.64 468.296 295.64 468.296L297.595 479.487L328.644 472.775C328.644 472.775 325.852 452.068 323.886 437.526C321.931 422.973 316.057 391.645 314.371 386.328C312.695 381.012 312.974 381.012 308.217 381.012C303.459 381.012 286.672 382.408 269.885 384.653C253.099 386.887 233.241 389.69 218.409 393.331C203.577 396.972 213.372 394.169 201.343 399.206C189.314 404.243 180.292 416.325 180.292 416.325H180.303Z" fill="#415A77" stroke="#263238" stroke-miterlimit="10"/>
<path d="M283.88 423.822C283.88 423.822 285.555 416.551 288.079 412.91C290.592 409.269 295.35 405.081 295.35 405.081" stroke="#263238" stroke-miterlimit="10"/>
<path d="M293.675 403.115C293.675 403.115 286.404 407.873 284.438 412.91" stroke="#263238" stroke-miterlimit="10"/>
<path d="M316.057 410.955C316.057 410.955 310.461 430.814 306.541 438.375" stroke="#263238" stroke-miterlimit="10"/>
<path d="M315.777 422.426C315.777 422.426 311.578 457.116 306.541 466.911" stroke="#263238" stroke-miterlimit="10"/>
<path d="M200.784 418.226C200.784 418.226 209.741 402.836 220.643 395.844" stroke="#263238" stroke-miterlimit="10"/>
<path d="M212.255 397.799C212.255 397.799 206.938 403.115 204.425 407.594" stroke="#263238" stroke-miterlimit="10"/>
<path d="M14.3057 496.639H514.757" stroke="#263238" stroke-miterlimit="10"/>
</svg>
